<mxfile host="app.diagrams.net" modified="2022-11-23T14:19:43.848Z" agent="5.0 (Macintosh; Intel Mac OS X 10_15_7) AppleWebKit/537.36 (KHTML, like Gecko) Chrome/107.0.0.0 Safari/537.36" etag="GccVyhuJgxn8xIecLZ7f" version="20.5.3" type="github">
  <diagram id="1Vha-SiMk9ycFME-SMeP" name="第 1 页">
    <mxGraphModel dx="1044" dy="741" grid="1" gridSize="10" guides="1" tooltips="1" connect="1" arrows="1" fold="1" page="1" pageScale="1" pageWidth="827" pageHeight="1169" math="0" shadow="0">
      <root>
        <mxCell id="0" />
        <mxCell id="1" parent="0" />
        <mxCell id="tvhGSAr4-qhXhOVwlWPS-1" value="&lt;b&gt;&lt;font style=&quot;font-size: 18px;&quot;&gt;Redo Log 1&lt;/font&gt;&lt;/b&gt;" style="rounded=0;whiteSpace=wrap;html=1;strokeWidth=2;" vertex="1" parent="1">
          <mxGeometry x="70" y="270" width="170" height="60" as="geometry" />
        </mxCell>
        <mxCell id="tvhGSAr4-qhXhOVwlWPS-2" value="&lt;b&gt;&lt;font style=&quot;font-size: 18px;&quot;&gt;Redo Log 2&lt;/font&gt;&lt;/b&gt;" style="rounded=0;whiteSpace=wrap;html=1;strokeWidth=2;" vertex="1" parent="1">
          <mxGeometry x="240" y="270" width="170" height="60" as="geometry" />
        </mxCell>
        <mxCell id="tvhGSAr4-qhXhOVwlWPS-3" value="&lt;b&gt;&lt;font style=&quot;font-size: 18px;&quot;&gt;Redo Log 3&lt;/font&gt;&lt;/b&gt;" style="rounded=0;whiteSpace=wrap;html=1;strokeWidth=2;" vertex="1" parent="1">
          <mxGeometry x="410" y="270" width="170" height="60" as="geometry" />
        </mxCell>
        <mxCell id="tvhGSAr4-qhXhOVwlWPS-4" value="&lt;span style=&quot;font-size: 18px;&quot;&gt;&lt;b&gt;MLOG_MULTI_REC_END&lt;/b&gt;&lt;/span&gt;" style="rounded=0;whiteSpace=wrap;html=1;strokeWidth=2;fillColor=#e51400;fontColor=#ffffff;strokeColor=#B20000;" vertex="1" parent="1">
          <mxGeometry x="670" y="270" width="270" height="60" as="geometry" />
        </mxCell>
        <mxCell id="tvhGSAr4-qhXhOVwlWPS-5" value="&lt;b&gt;.....&lt;/b&gt;" style="rounded=0;whiteSpace=wrap;html=1;strokeWidth=2;fontSize=18;dashed=1;" vertex="1" parent="1">
          <mxGeometry x="580" y="270" width="90" height="60" as="geometry" />
        </mxCell>
        <mxCell id="tvhGSAr4-qhXhOVwlWPS-6" value="" style="shape=curlyBracket;whiteSpace=wrap;html=1;rounded=1;labelPosition=left;verticalLabelPosition=middle;align=right;verticalAlign=middle;strokeWidth=2;fontSize=18;rotation=-90;" vertex="1" parent="1">
          <mxGeometry x="795" y="215" width="20" height="270" as="geometry" />
        </mxCell>
        <mxCell id="tvhGSAr4-qhXhOVwlWPS-7" value="&lt;b&gt;Type Field&lt;/b&gt;" style="text;html=1;align=center;verticalAlign=middle;resizable=0;points=[];autosize=1;strokeColor=none;fillColor=none;fontSize=18;" vertex="1" parent="1">
          <mxGeometry x="750" y="360" width="110" height="40" as="geometry" />
        </mxCell>
        <mxCell id="tvhGSAr4-qhXhOVwlWPS-8" value="" style="shape=curlyBracket;whiteSpace=wrap;html=1;rounded=1;labelPosition=left;verticalLabelPosition=middle;align=right;verticalAlign=middle;strokeWidth=2;fontSize=18;rotation=90;" vertex="1" parent="1">
          <mxGeometry x="495" y="-195" width="20" height="870" as="geometry" />
        </mxCell>
        <mxCell id="tvhGSAr4-qhXhOVwlWPS-9" value="&lt;b&gt;Mini-Transaction&lt;/b&gt;" style="text;html=1;align=center;verticalAlign=middle;resizable=0;points=[];autosize=1;strokeColor=none;fillColor=none;fontSize=18;" vertex="1" parent="1">
          <mxGeometry x="420" y="180" width="170" height="40" as="geometry" />
        </mxCell>
      </root>
    </mxGraphModel>
  </diagram>
</mxfile>
